<svg width="31" height="30" viewBox="0 0 31 30" fill="none" xmlns="http://www.w3.org/2000/svg">
    <path d="M23.2055 24.1483C22.3849 21.4879 23.479 20.7139 25.7127 20.7139C26.3509 20.7139 26.9891 20.6656 27.5817 20.5688C31.0918 19.8916 31.8211 18.247 30.0433 14.9577C28.0831 11.3298 24.6186 8.71776 24.1172 4.07408C23.9804 2.81642 22.4305 1.84899 21.3365 0.978296C19.3763 -0.521225 18.6979 1.02552 19.0572 2.42945C20.2328 2.56042 22.438 5.24264 23.2055 6.77752C23.9729 8.3124 24.1172 8.37916 23.5246 9.97543C22.2938 8.95962 22.1039 8.3124 21.3365 6.77752C19.9689 5.47148 19.4675 3.88059 18.1455 2.52619C15.7751 1.3169 15.0457 2.38107 15.0457 4.8964C15.0457 6.73452 15.5472 8.37916 16.4133 10.3624C11.5812 9.24985 7.79765 10.5559 5.06253 14.5707C4.37875 15.5865 3.37587 15.3447 2.55533 15.78C0.549578 16.9409 -0.590061 19.1177 1.0966 20.6172C3.69496 22.939 4.42433 26.4702 6.79476 28.7436C7.02269 28.9371 7.20504 29.1306 7.43297 29.3241C10.7607 29.3241 14.0884 29.3241 17.3706 29.3241C17.0971 26.8571 17.0971 26.8571 13.3135 26.5185C14.7266 25.3576 15.5016 24.0032 16.1854 22.5521C15.5016 18.1502 15.0913 17.7633 9.39313 16.1186C12.7664 14.1838 16.9147 16.8442 17.0059 21.0525C17.0059 22.0683 16.8691 23.0358 16.778 24.0516C16.6868 24.3418 16.5956 24.6804 16.5045 24.9706C19.5587 24.9223 18.8293 27.6795 19.4219 29.4208C20.8351 29.3725 22.2482 29.3241 23.7069 29.2757C23.7069 29.0822 23.7525 28.8887 23.8893 28.7436C23.7069 27.1957 23.6613 25.5995 23.2055 24.1483Z" fill="white"/>
</svg>
